# xmcd
#
# Track frame offsets:
#	150
#	14426
#	27755
#	42747
#	65231
#	83865
#	95118
#	112043
#	131385
#	147228
#	168589
#	189453
#	212985
#
# Disc length: 3069 seconds
# Revision: 0
# Processed by: cddbd v1.5.2PL0 Copyright (c) Steve Scherf et al.
# Submitted via: dBpowerAMP V12.0
#
DISCID=c50bfb0d
DTITLE=Mike Scott - The Old Country Church: Appalachian Gospel Instrumentals
DYEAR=2014
DGENRE=Country
TTITLE0=Will the Circle Be Unbroken
TTITLE1=The Old Country Church
TTITLE2=Swing Low, Sweet Chariot
TTITLE3=Pass Me Not
TTITLE4=When the Saints Go Marching In
TTITLE5=Where the Soul of Man Never Dies
TTITLE6=I'll Fly Away
TTITLE7=Where the Roses Never Fade
TTITLE8=When the Angels Carry Me Home
TTITLE9=Precious Memories
TTITLE10=Victory in Jesus
TTITLE11=What a Friend We Have in Jesus
TTITLE12=I Saw the Light
EXTD=
EXTT0=
EXTT1=
EXTT2=
EXTT3=
EXTT4=
EXTT5=
EXTT6=
EXTT7=
EXTT8=
EXTT9=
EXTT10=
EXTT11=
EXTT12=
PLAYORDER=
